<svg width="482" height="279" viewBox="0 0 482 279" fill="none" xmlns="http://www.w3.org/2000/svg">
<path fill-rule="evenodd" clip-rule="evenodd" d="M164.5 0H196.708C198.485 0 199.38 2.14353 198.13 3.40654L133.587 68.651C132.497 69.7526 133.019 71.6285 134.509 72.0547C148.731 76.1231 161.724 83.1028 172.802 92.3079C173.609 92.9789 174.798 92.9338 175.537 92.1885L266.413 0.591565C266.789 0.213071 267.3 0.000182748 267.833 0.000182748H299.198C300.976 0.000182748 301.87 2.1468 300.617 3.40894L240.014 64.4808C238.716 65.7893 239.731 68.0485 241.574 68.0163C242.198 68.0055 242.824 68 243.45 68C269.212 68 292.817 77.2385 311.132 92.5832C311.894 93.2217 313.006 93.2217 313.768 92.5832C332.083 77.2385 355.688 68 381.45 68C423.096 68 459.103 92.1416 476.24 127.194C476.878 128.499 475.913 130 474.46 130H450.685C449.997 130 449.358 129.645 448.985 129.066C434.568 106.762 409.483 92 380.95 92C361.65 92 343.928 98.754 330.018 110.027C329.203 110.688 329.067 111.87 329.672 112.727C332.895 117.295 335.764 122.131 338.24 127.194C338.878 128.5 337.913 130 336.46 130H288.44C286.987 130 286.022 128.5 286.66 127.194C289.044 122.319 291.792 117.655 294.87 113.237C295.463 112.387 295.331 111.221 294.533 110.56C280.527 98.9672 262.552 92 242.95 92C223.65 92 205.928 98.754 192.018 110.027C191.203 110.688 191.067 111.87 191.672 112.727C194.895 117.295 197.764 122.131 200.24 127.194C200.878 128.5 199.913 130 198.46 130H150.44C148.987 130 148.022 128.5 148.66 127.194C151.044 122.319 153.792 117.655 156.87 113.237C157.463 112.387 157.331 111.221 156.533 110.56C142.527 98.9672 124.552 92 104.95 92C95.37 92 86.1786 93.6641 77.6493 96.7191C75.3763 97.5333 72.1947 93.1963 73.8917 91.4788L78.0066 87.3142C78.008 87.3128 78.0071 87.3103 78.0051 87.3101V87.3101C78.0031 87.3099 78.0022 87.3075 78.0036 87.306L134.712 29.9056C135.96 28.6422 135.065 26.5 133.289 26.5H78.6177C76.7365 26.5 75.8958 24.1388 77.3538 22.95L104.948 0.449963C105.305 0.158934 105.752 0 106.212 0H164.5ZM150.489 217C149.035 217 148.07 218.502 148.71 219.807C150.969 224.416 153.555 228.836 156.437 233.037C157.024 233.892 156.884 235.056 156.081 235.711C142.141 247.082 124.342 253.9 104.95 253.9C60.2425 253.9 24 217.657 24 172.95C24 163.712 25.5473 154.836 28.3969 146.566C29.1834 144.284 24.8085 141.154 23.1116 142.872L0.779973 165.473C0.443887 165.813 0.240042 166.262 0.210072 166.739C0.0707232 168.958 0 171.196 0 173.45C0 231.688 47.2116 278.9 105.45 278.9C131.212 278.9 154.817 269.662 173.132 254.317C173.894 253.678 175.006 253.678 175.768 254.317C194.083 269.662 217.688 278.9 243.45 278.9C269.212 278.9 292.817 269.662 311.132 254.317C311.894 253.678 313.006 253.678 313.768 254.317C332.083 269.662 355.688 278.9 381.45 278.9C423.055 278.9 459.033 254.805 476.19 219.808C476.83 218.502 475.865 217 474.411 217H449.962C449.285 217 448.655 217.344 448.279 217.907C433.759 239.61 409.023 253.9 380.95 253.9C361.862 253.9 344.317 247.293 330.477 236.242C329.658 235.588 329.513 234.407 330.112 233.545C333.135 229.193 335.839 224.603 338.19 219.807C338.83 218.502 337.865 217 336.411 217H288.489C287.035 217 286.07 218.502 286.71 219.807C288.969 224.416 291.555 228.836 294.437 233.037C295.024 233.892 294.884 235.056 294.081 235.711C280.141 247.082 262.342 253.9 242.95 253.9C223.862 253.9 206.317 247.293 192.477 236.242C191.658 235.588 191.513 234.407 192.112 233.545C195.135 229.193 197.839 224.603 200.19 219.807C200.83 218.502 199.865 217 198.411 217H150.489Z" fill="#F25019"/>
<path d="M75.792 202.896C73.4773 202.896 71.6853 202.261 70.416 200.992C69.2213 199.648 68.624 197.819 68.624 195.504V130.32C68.624 127.931 69.2587 126.139 70.528 124.944C71.7973 123.675 73.5893 123.04 75.904 123.04H102.896C111.557 123.04 118.24 125.131 122.944 129.312C127.648 133.419 130 139.205 130 146.672C130 151.525 128.917 155.707 126.752 159.216C124.661 162.725 121.6 165.413 117.568 167.28C113.536 169.147 108.645 170.08 102.896 170.08L103.904 168.4H107.6C110.661 168.4 113.312 169.147 115.552 170.64C117.867 172.133 119.883 174.485 121.6 177.696L130 193.264C130.896 194.832 131.307 196.363 131.232 197.856C131.157 199.349 130.597 200.581 129.552 201.552C128.507 202.448 126.976 202.896 124.96 202.896C122.944 202.896 121.301 202.485 120.032 201.664C118.763 200.768 117.643 199.424 116.672 197.632L105.36 176.8C104.016 174.261 102.411 172.581 100.544 171.76C98.752 170.864 96.4373 170.416 93.6 170.416H82.96V195.504C82.96 197.819 82.3627 199.648 81.168 200.992C79.9733 202.261 78.1813 202.896 75.792 202.896ZM82.96 159.776H100.432C105.584 159.776 109.467 158.731 112.08 156.64C114.768 154.475 116.112 151.264 116.112 147.008C116.112 142.827 114.768 139.691 112.08 137.6C109.467 135.435 105.584 134.352 100.432 134.352H82.96V159.776ZM167.615 203.12C161.941 203.12 157.013 201.963 152.831 199.648C148.65 197.333 145.402 194.048 143.087 189.792C140.773 185.461 139.615 180.384 139.615 174.56C139.615 170.155 140.25 166.235 141.519 162.8C142.863 159.291 144.767 156.304 147.231 153.84C149.695 151.301 152.645 149.397 156.079 148.128C159.514 146.784 163.359 146.112 167.615 146.112C173.29 146.112 178.218 147.269 182.399 149.584C186.581 151.899 189.829 155.184 192.143 159.44C194.458 163.696 195.615 168.736 195.615 174.56C195.615 178.965 194.943 182.923 193.599 186.432C192.33 189.941 190.463 192.965 187.999 195.504C185.535 197.968 182.586 199.872 179.151 201.216C175.717 202.485 171.871 203.12 167.615 203.12ZM167.615 192.48C170.378 192.48 172.805 191.808 174.895 190.464C176.986 189.12 178.591 187.141 179.711 184.528C180.906 181.84 181.503 178.517 181.503 174.56C181.503 168.587 180.234 164.144 177.695 161.232C175.157 158.245 171.797 156.752 167.615 156.752C164.853 156.752 162.426 157.424 160.335 158.768C158.245 160.037 156.602 162.016 155.407 164.704C154.287 167.317 153.727 170.603 153.727 174.56C153.727 180.459 154.997 184.939 157.535 188C160.074 190.987 163.434 192.48 167.615 192.48ZM232.147 203.12C226.472 203.12 221.544 201.963 217.363 199.648C213.181 197.333 209.933 194.048 207.619 189.792C205.304 185.461 204.147 180.384 204.147 174.56C204.147 170.155 204.781 166.235 206.051 162.8C207.395 159.291 209.299 156.304 211.763 153.84C214.227 151.301 217.176 149.397 220.611 148.128C224.045 146.784 227.891 146.112 232.147 146.112C237.821 146.112 242.749 147.269 246.931 149.584C251.112 151.899 254.36 155.184 256.675 159.44C258.989 163.696 260.147 168.736 260.147 174.56C260.147 178.965 259.475 182.923 258.131 186.432C256.861 189.941 254.995 192.965 252.531 195.504C250.067 197.968 247.117 199.872 243.683 201.216C240.248 202.485 236.403 203.12 232.147 203.12ZM232.147 192.48C234.909 192.48 237.336 191.808 239.427 190.464C241.517 189.12 243.123 187.141 244.243 184.528C245.437 181.84 246.035 178.517 246.035 174.56C246.035 168.587 244.765 164.144 242.227 161.232C239.688 158.245 236.328 156.752 232.147 156.752C229.384 156.752 226.957 157.424 224.867 158.768C222.776 160.037 221.133 162.016 219.939 164.704C218.819 167.317 218.259 170.603 218.259 174.56C218.259 180.459 219.528 184.939 222.067 188C224.605 190.987 227.965 192.48 232.147 192.48ZM296.678 203.12C291.003 203.12 286.075 201.963 281.894 199.648C277.713 197.333 274.465 194.048 272.15 189.792C269.835 185.461 268.678 180.384 268.678 174.56C268.678 170.155 269.313 166.235 270.582 162.8C271.926 159.291 273.83 156.304 276.294 153.84C278.758 151.301 281.707 149.397 285.142 148.128C288.577 146.784 292.422 146.112 296.678 146.112C302.353 146.112 307.281 147.269 311.462 149.584C315.643 151.899 318.891 155.184 321.206 159.44C323.521 163.696 324.678 168.736 324.678 174.56C324.678 178.965 324.006 182.923 322.662 186.432C321.393 189.941 319.526 192.965 317.062 195.504C314.598 197.968 311.649 199.872 308.214 201.216C304.779 202.485 300.934 203.12 296.678 203.12ZM296.678 192.48C299.441 192.48 301.867 191.808 303.958 190.464C306.049 189.12 307.654 187.141 308.774 184.528C309.969 181.84 310.566 178.517 310.566 174.56C310.566 168.587 309.297 164.144 306.758 161.232C304.219 158.245 300.859 156.752 296.678 156.752C293.915 156.752 291.489 157.424 289.398 158.768C287.307 160.037 285.665 162.016 284.47 164.704C283.35 167.317 282.79 170.603 282.79 174.56C282.79 180.459 284.059 184.939 286.598 188C289.137 190.987 292.497 192.48 296.678 192.48ZM343.401 202.896C341.161 202.896 339.444 202.299 338.249 201.104C337.054 199.835 336.457 198.043 336.457 195.728V153.392C336.457 151.077 337.054 149.323 338.249 148.128C339.444 146.933 341.124 146.336 343.289 146.336C345.454 146.336 347.134 146.933 348.329 148.128C349.524 149.323 350.121 151.077 350.121 153.392V161.568L348.889 158.208C350.382 154.475 352.697 151.525 355.833 149.36C358.969 147.195 362.702 146.112 367.033 146.112C371.438 146.112 375.06 147.157 377.897 149.248C380.734 151.339 382.713 154.549 383.833 158.88H382.265C383.758 154.923 386.222 151.824 389.657 149.584C393.092 147.269 397.049 146.112 401.529 146.112C405.71 146.112 409.145 146.933 411.833 148.576C414.596 150.219 416.649 152.72 417.993 156.08C419.337 159.365 420.009 163.547 420.009 168.624V195.728C420.009 198.043 419.374 199.835 418.105 201.104C416.91 202.299 415.193 202.896 412.953 202.896C410.713 202.896 408.996 202.299 407.801 201.104C406.606 199.835 406.009 198.043 406.009 195.728V169.184C406.009 165.003 405.3 161.941 403.881 160C402.537 158.059 400.222 157.088 396.937 157.088C393.278 157.088 390.404 158.395 388.313 161.008C386.222 163.547 385.177 167.093 385.177 171.648V195.728C385.177 198.043 384.58 199.835 383.385 201.104C382.19 202.299 380.473 202.896 378.233 202.896C375.993 202.896 374.238 202.299 372.969 201.104C371.774 199.835 371.177 198.043 371.177 195.728V169.184C371.177 165.003 370.468 161.941 369.049 160C367.705 158.059 365.428 157.088 362.217 157.088C358.558 157.088 355.684 158.395 353.593 161.008C351.502 163.547 350.457 167.093 350.457 171.648V195.728C350.457 200.507 348.105 202.896 343.401 202.896ZM454.5 203.12C451.289 203.12 447.892 202.784 444.308 202.112C440.724 201.44 437.513 200.283 434.676 198.64C433.481 197.893 432.623 197.035 432.1 196.064C431.652 195.019 431.465 194.011 431.54 193.04C431.689 191.995 432.063 191.099 432.66 190.352C433.332 189.605 434.153 189.12 435.124 188.896C436.169 188.672 437.289 188.859 438.484 189.456C441.471 190.875 444.271 191.883 446.884 192.48C449.497 193.003 452.073 193.264 454.612 193.264C458.196 193.264 460.847 192.667 462.564 191.472C464.356 190.203 465.252 188.56 465.252 186.544C465.252 184.827 464.655 183.52 463.46 182.624C462.34 181.653 460.623 180.944 458.308 180.496L447.108 178.368C442.479 177.472 438.932 175.792 436.468 173.328C434.079 170.789 432.884 167.541 432.884 163.584C432.884 160 433.855 156.901 435.796 154.288C437.812 151.675 440.575 149.659 444.084 148.24C447.593 146.821 451.625 146.112 456.18 146.112C459.465 146.112 462.527 146.485 465.364 147.232C468.276 147.904 471.076 148.987 473.764 150.48C474.884 151.077 475.631 151.861 476.004 152.832C476.452 153.803 476.564 154.811 476.34 155.856C476.116 156.827 475.668 157.723 474.996 158.544C474.324 159.291 473.465 159.776 472.42 160C471.449 160.149 470.329 159.925 469.06 159.328C466.745 158.133 464.505 157.275 462.34 156.752C460.249 156.229 458.233 155.968 456.292 155.968C452.633 155.968 449.908 156.603 448.116 157.872C446.399 159.141 445.54 160.821 445.54 162.912C445.54 164.48 446.063 165.787 447.108 166.832C448.153 167.877 449.759 168.587 451.924 168.96L463.124 171.088C467.977 171.984 471.636 173.627 474.1 176.016C476.639 178.405 477.908 181.616 477.908 185.648C477.908 191.099 475.78 195.392 471.524 198.528C467.268 201.589 461.593 203.12 454.5 203.12Z" fill="white"/>
</svg>
